<?xml version="1.0" encoding="UTF-8" standalone="no"?>
<!DOCTYPE svg PUBLIC "-//W3C//DTD SVG 1.1//EN" "http://www.w3.org/Graphics/SVG/1.1/DTD/svg11.dtd">
<svg width="100%" height="100%" viewBox="0 0 649 225" version="1.1" xmlns="http://www.w3.org/2000/svg" xmlns:xlink="http://www.w3.org/1999/xlink" xml:space="preserve" xmlns:serif="http://www.serif.com/" style="fill-rule:evenodd;clip-rule:evenodd;stroke-linejoin:round;stroke-miterlimit:2;">
    <g transform="matrix(1,0,0,1,-5264.02,-1429.91)">
        <g transform="matrix(1,0,0,1.01996,1262,-26.1724)">
            <g transform="matrix(0.731366,0,0,0.717051,3977.49,1303.19)">
                <rect id="Belgium-Label" serif:id="Belgium Label" x="344" y="377" width="317" height="103" style="fill:rgb(51,51,51);"/>
                <g id="Belgium-Label1" serif:id="Belgium Label">
                    <g transform="matrix(0.720706,0,0,0.674932,122.926,226.256)">
                        <text x="380px" y="321px" style="font-family:'LucidaGrande', 'Lucida Grande', sans-serif;font-weight:500;font-size:75.387px;fill:white;">Belgium</text>
                    </g>
                </g>
                <g id="Flutter-Logo" serif:id="Flutter Logo">
                    <g transform="matrix(1.52439,0,0,1.52439,29.2987,117.082)">
                        <path d="M207.29,37L264.64,37L264.64,48.24L218.93,48.24L218.93,82.19L260.21,82.19L260.21,93.27L218.93,93.27L218.93,136.27L207.29,136.27L207.29,37Z" style="fill-rule:nonzero;"/>
                        <rect x="276.76" y="37" width="11.78" height="99.2" style="fill-rule:nonzero;"/>
                        <path d="M308.57,130.94C304.09,125.953 301.85,118.977 301.85,110.01L301.85,65.55L313.62,65.55L313.62,108.22C313.62,114.973 315.147,119.917 318.2,123.05C321.253,126.183 325.36,127.753 330.52,127.76C334.293,127.821 337.994,126.709 341.11,124.58C344.189,122.476 346.67,119.609 348.31,116.26C350.012,112.912 350.893,109.206 350.88,105.45L350.88,65.55L362.66,65.55L362.66,136.21L351.43,136.21L351.43,126L350.88,126C348.675,129.768 345.456,132.841 341.59,134.87C337.458,137.24 332.774,138.481 328.01,138.47C319.543,138.437 313.063,135.927 308.57,130.94Z" style="fill-rule:nonzero;"/>
                        <path d="M397.19,137C394.899,136.161 392.8,134.868 391.02,133.2C389.202,131.456 387.786,129.337 386.87,126.99C385.874,124.232 385.402,121.312 385.48,118.38L385.48,76.22L373.15,76.22L373.15,65.55L385.48,65.55L385.48,45.6L397.25,45.6L397.25,65.55L414.43,65.55L414.43,76.22L397.25,76.22L397.25,115.59C397.25,119.59 397.99,122.48 399.47,124.37C401.223,126.45 403.763,127.49 407.09,127.49C409.849,127.465 412.544,126.646 414.85,125.13L414.85,136.63C413.5,137.26 412.08,137.727 410.62,138.02C408.813,138.322 406.982,138.46 405.15,138.43C402.431,138.446 399.733,137.961 397.19,137Z" style="fill-rule:nonzero;"/>
                        <path d="M445.87,137C443.583,136.159 441.488,134.866 439.71,133.2C437.889,131.456 436.47,129.337 435.55,126.99C434.557,124.231 434.089,121.311 434.17,118.38L434.17,76.22L421.84,76.22L421.84,65.55L434.17,65.55L434.17,45.6L445.94,45.6L445.94,65.55L463.12,65.55L463.12,76.22L445.94,76.22L445.94,115.59C445.94,119.59 446.68,122.48 448.15,124.37C449.91,126.45 452.453,127.49 455.78,127.49C458.536,127.466 461.228,126.647 463.53,125.13L463.53,136.63C462.184,137.261 460.767,137.728 459.31,138.02C457.5,138.322 455.665,138.459 453.83,138.43C451.112,138.442 448.414,137.957 445.87,137Z" style="fill-rule:nonzero;"/>
                        <path d="M485.7,133.57C480.369,130.356 476.032,125.728 473.17,120.2C470.105,114.271 468.556,107.674 468.66,101C468.593,94.479 470.038,88.03 472.88,82.16C475.567,76.59 479.715,71.851 484.88,68.45C490.235,64.988 496.505,63.205 502.88,63.33C509.193,63.172 515.427,64.775 520.88,67.96C525.938,71.021 530.008,75.476 532.6,80.79C535.409,86.62 536.81,93.029 536.69,99.5C536.71,100.713 536.569,101.924 536.27,103.1L480.44,103.1C480.551,107.885 481.89,112.562 484.33,116.68C486.445,120.201 489.486,123.076 493.12,124.99C496.554,126.811 500.383,127.763 504.27,127.76C513.323,127.76 520.297,123.513 525.19,115.02L535.19,119.87C532.321,125.409 528.044,130.097 522.79,133.46C517.57,136.793 511.267,138.46 503.88,138.46C497.485,138.544 491.19,136.851 485.7,133.57ZM524.21,93.39C523.984,90.295 523.133,87.278 521.71,84.52C520.106,81.433 517.684,78.845 514.71,77.04C511.087,74.891 506.92,73.832 502.71,73.99C497.507,73.861 492.456,75.78 488.65,79.33C484.702,83.094 482.057,88.02 481.1,93.39L524.21,93.39Z" style="fill-rule:nonzero;"/>
                        <path d="M544.31,65.55L555.54,65.55L555.54,76.91L556.09,76.91C557.592,72.871 560.411,69.453 564.09,67.21C567.77,64.708 572.111,63.354 576.56,63.32C579.406,63.252 582.235,63.773 584.87,64.85L584.87,77.46C581.756,75.95 578.33,75.192 574.87,75.25C571.507,75.235 568.219,76.251 565.45,78.16C562.567,80.167 560.23,82.862 558.65,86C556.943,89.282 556.064,92.931 556.09,96.63L556.09,136.21L544.32,136.21L544.32,65.55L544.31,65.55Z" style="fill-rule:nonzero;"/>
                    </g>
                    <g id="logo" transform="matrix(1.6718,0,0,1.6718,51.9574,2279.16)">
                        <g transform="matrix(1,0,0,1,-20,-1268)">
                            <path d="M37.7,128.9L9.8,101L100.4,10.4L156.2,10.4" style="fill-opacity:0.8;fill-rule:nonzero;"/>
                        </g>
                        <g transform="matrix(1,0,0,1,-20,-1268)">
                            <path d="M156.2,94L100.4,94L79.5,114.9L107.4,142.8" style="fill:rgb(255,233,54);fill-opacity:0.8;fill-rule:nonzero;"/>
                        </g>
                        <g transform="matrix(1,0,0,1,-20,-1268)">
                            <path d="M79.5,170.7L100.4,191.6L156.2,191.6L107.4,142.8" style="fill:rgb(255,15,33);fill-rule:nonzero;"/>
                        </g>
                        <g transform="matrix(0.7071,-0.7071,0.7071,0.7071,-97.667,-1169.94)">
                            <rect x="59.8" y="123.1" width="39.4" height="39.4" style="fill:rgb(255,233,54);"/>
                            <rect x="59.8" y="162.5" width="39.4" height="5.5" style="fill:url(#_Linear1);"/>
                        </g>
                        <g transform="matrix(1,0,0,1,-20,-1268)">
                            <path d="M79.5,170.7L120.9,156.4L107.4,142.8" style="fill:url(#_Linear2);fill-rule:nonzero;"/>
                        </g>
                    </g>
                </g>
            </g>
        </g>
    </g>
    <defs>
        <linearGradient id="_Linear1" x1="0" y1="0" x2="1" y2="0" gradientUnits="userSpaceOnUse" gradientTransform="matrix(3.36778e-16,5.5,-5.5,3.36778e-16,59.8,162.5)"><stop offset="0" style="stop-color:black;stop-opacity:0.15"/><stop offset="0.2" style="stop-color:black;stop-opacity:0.15"/><stop offset="0.85" style="stop-color:rgb(97,97,97);stop-opacity:0.01"/><stop offset="1" style="stop-color:rgb(97,97,97);stop-opacity:0.01"/></linearGradient>
        <linearGradient id="_Linear2" x1="0" y1="0" x2="1" y2="0" gradientUnits="userSpaceOnUse" gradientTransform="matrix(41.4,0,0,41.4,79.5,142.8)"><stop offset="0" style="stop-color:black;stop-opacity:0.55"/><stop offset="0.2" style="stop-color:black;stop-opacity:0.55"/><stop offset="0.85" style="stop-color:rgb(97,97,97);stop-opacity:0.01"/><stop offset="1" style="stop-color:rgb(97,97,97);stop-opacity:0.01"/></linearGradient>
    </defs>
</svg>
