<?xml version="1.0" encoding="UTF-8" standalone="no"?>
<!DOCTYPE svg PUBLIC "-//W3C//DTD SVG 1.1//EN" "http://www.w3.org/Graphics/SVG/1.1/DTD/svg11.dtd">
<svg width="100%" height="100%" viewBox="0 0 53 54" version="1.1" xmlns="http://www.w3.org/2000/svg" xmlns:xlink="http://www.w3.org/1999/xlink" xml:space="preserve" xmlns:serif="http://www.serif.com/" style="fill-rule:evenodd;clip-rule:evenodd;stroke-linejoin:round;stroke-miterlimit:2;">
    <g transform="matrix(1,0,0,1,-5657,-1756)">
        <g transform="matrix(0.480696,0,0,0.480696,5339.6,1580.57)">
            <g id="Linkedin">
                <g transform="matrix(1,0,0,1,6.83509,-1298)">
                    <path d="M669.345,1664.67C660.688,1664.67 653.67,1671.68 653.67,1680.34L653.67,1757.66C653.67,1766.32 660.688,1773.33 669.345,1773.33L746.66,1773.33C755.317,1773.33 762.335,1766.32 762.335,1757.66L762.335,1680.34C762.335,1671.68 755.317,1664.67 746.66,1664.67L669.345,1664.67Z" style="fill:rgb(51,51,51);"/>
                </g>
                <g transform="matrix(2.08032,0,0,2.08032,-8482.69,-3329.68)">
                    <path d="M4439.3,1820.22L4431.55,1820.22L4431.55,1807.74C4431.55,1804.61 4430.43,1802.47 4427.62,1802.47C4425.48,1802.47 4424.2,1803.91 4423.64,1805.31C4423.44,1805.81 4423.39,1806.5 4423.39,1807.2L4423.39,1820.22L4415.63,1820.22C4415.63,1820.22 4415.74,1799.09 4415.63,1796.9L4423.39,1796.9L4423.39,1800.21C4424.42,1798.62 4426.26,1796.35 4430.37,1796.35C4435.48,1796.35 4439.3,1799.69 4439.3,1806.85L4439.3,1820.22ZM4411.35,1820.22L4403.6,1820.22L4403.6,1796.9L4411.35,1796.9L4411.35,1820.22ZM4407.47,1793.72L4407.42,1793.72C4404.82,1793.72 4403.14,1791.93 4403.14,1789.69C4403.14,1787.4 4404.87,1785.66 4407.52,1785.66C4410.18,1785.66 4411.81,1787.4 4411.86,1789.69C4411.86,1791.93 4410.18,1793.72 4407.47,1793.72Z" style="fill:white;"/>
                </g>
            </g>
        </g>
    </g>
</svg>
