<?xml version="1.0" encoding="UTF-8" standalone="no"?>
<!DOCTYPE svg PUBLIC "-//W3C//DTD SVG 1.1//EN" "http://www.w3.org/Graphics/SVG/1.1/DTD/svg11.dtd">
<svg width="100%" height="100%" viewBox="0 0 72 68" version="1.1" xmlns="http://www.w3.org/2000/svg" xmlns:xlink="http://www.w3.org/1999/xlink" xml:space="preserve" xmlns:serif="http://www.serif.com/" style="fill-rule:evenodd;clip-rule:evenodd;stroke-linejoin:round;stroke-miterlimit:2;">
    <g transform="matrix(1,0,0,1,-5552,-1749)">
        <g transform="matrix(0.480696,0,0,0.480696,5339.6,1580.57)">
            <g id="Meetup" transform="matrix(0.786389,0,0,0.786389,115.677,90.7168)">
                <g transform="matrix(0.356191,0,0,0.356191,416.079,330.952)">
                    <path d="M452.753,321.453C452.794,366.961 420.022,406.164 375.458,413.872C369.847,414.835 364.181,415.405 358.487,415.351C356.567,415.33 355.813,416.098 355.204,417.857C346.307,443.401 328.552,458.628 301.731,462.468C283.988,465.006 267.887,460.248 253.773,449.155C251.807,447.609 250.605,447.583 248.555,449.048C232.047,460.855 213.538,466.084 193.326,464.863C153.885,462.482 120.699,432.337 114.491,393.465C114.064,390.778 113.61,388.071 113.569,385.363C113.528,383.111 112.673,382.242 110.522,381.821C98.581,379.493 87.745,374.575 78.185,367.092C60.591,353.317 50.035,335.331 47.578,313.083C44.776,287.619 52.641,265.602 70.553,247.255C71.997,245.783 72.087,244.758 71.102,243.027C64.216,231.005 60.952,217.984 61.482,204.176C62.804,169.715 86.784,141.244 120.139,134.195C123.998,133.375 126.021,131.862 127.717,128.205C144.169,92.76 171.793,71.203 210.126,64.093C237.035,59.099 262.42,64.446 285.976,78.301C287.956,79.469 289.614,79.563 291.757,78.939C329.17,68.084 362.321,75.981 390.465,102.742C407.109,118.564 416.228,138.588 418.928,161.432C419.519,166.426 419.788,171.467 419.408,176.488C419.265,178.387 419.849,179.181 421.647,179.846C438.513,186.089 450.143,197.731 455.231,214.951C461.568,236.371 456.245,255.154 440.239,270.772C438.852,272.128 439.145,272.958 439.931,274.313C448.39,288.886 452.772,304.572 452.753,321.453ZM285.814,314.146C285.828,333.509 298.258,350.623 315.885,356.438C324.719,359.355 333.831,360.739 343.08,361.146C349.683,361.431 356.275,360.97 362.376,357.929C367.173,355.534 369.433,351.578 369.216,346.307C368.999,341.001 366.623,337.033 361.548,334.921C359.784,334.188 357.993,333.591 356.12,333.266C350.522,332.267 344.897,331.426 339.327,330.322C330.134,328.491 326.279,323.625 326.157,314.329C326.05,306.106 328.281,298.35 330.811,290.677C335.439,276.632 341.679,263.246 347.659,249.75C353.432,236.717 359.484,223.791 363.562,210.064C365.808,202.526 366.88,194.968 364.838,187.172C361.73,175.339 354.639,167.408 342.412,165.127C331.218,163.044 320.076,162.807 309.953,169.483C306.587,171.695 303.35,171.166 300.428,168.587C298.196,166.626 296.072,164.55 293.887,162.535C283.561,153.002 269.909,152.534 258.823,161.24C254.35,164.754 250.586,169.111 245.727,172.164C241.385,174.891 237.007,175.664 232.199,173.1C227.619,170.657 222.877,168.507 218.147,166.363C213.356,164.199 208.715,161.526 203.322,161.071C186.264,159.619 168.413,169.756 160.888,185.165C157.549,191.984 154.823,199.068 152.238,206.198C140.302,239.16 130.58,272.827 120.518,306.378C116.012,321.394 121.33,336.17 134.045,344.28C143.965,350.602 154.827,352.165 166.072,348.786C175.182,346.044 180.171,338.711 183.658,330.473C195.246,303.144 205.682,275.351 216.728,247.805C219.768,240.225 222.711,232.613 225.936,225.115C229.192,217.544 238.548,214.965 244.098,219.986C247.486,223.051 248.379,227.131 248.047,231.493C247.682,236.155 245.876,240.455 244.18,244.737C236.993,262.907 229.673,281.024 222.454,299.18C220.995,302.852 219.414,306.494 218.769,310.435C217.664,317.202 220.343,323.2 225.878,325.587C231.525,328.024 237.387,328.431 243.241,326.306C250.053,323.837 254.124,318.504 257.26,312.342C268.035,291.182 278.727,269.97 289.495,248.809C294.469,239.033 299.53,229.303 304.611,219.585C306.499,215.983 308.711,212.57 312.238,210.331C315.422,208.316 318.853,208.166 322.117,209.999C325.302,211.783 325.515,215.041 325.381,218.257C325.308,219.986 324.824,221.676 324.159,223.284C322.763,226.628 321.459,230.022 319.911,233.3C310.955,252.141 301.863,270.909 292.987,289.791C289.246,297.76 285.352,305.767 285.814,314.146ZM411.438,453.001C411.459,440.503 400.983,430.053 388.382,430.019C375.47,429.972 364.995,440.305 364.939,453.123C364.885,465.653 375.539,476.285 388.138,476.301C400.915,476.314 411.418,465.812 411.438,453.001ZM21.931,261.48C34.083,261.507 44.308,251.35 44.26,239.307C44.205,227.244 34.198,217.242 22.148,217.208C9.798,217.175 -0.007,226.973 0,239.342C0.01,251.581 9.786,261.453 21.931,261.48ZM294.038,13.766C281.825,13.698 271.871,23.462 271.802,35.566C271.728,47.657 281.647,57.591 293.799,57.604C293.827,57.604 293.855,57.604 293.883,57.604C305.822,57.604 315.647,47.78 315.647,35.84C315.647,35.828 315.647,35.815 315.647,35.803C315.676,23.632 306.061,13.827 294.038,13.766ZM473.854,150.79C473.8,140.754 465.244,132.219 455.168,132.151C444.882,132.077 436.169,140.769 436.238,151.034C436.311,161.273 444.617,169.482 454.917,169.496C465.528,169.517 473.914,161.226 473.854,150.79ZM88.601,97.201C88.601,106.626 95.936,114.021 105.299,114.035C114.783,114.048 122.14,106.613 122.106,97.052C122.072,87.778 114.724,80.524 105.394,80.552C95.799,80.571 88.606,87.702 88.601,97.201ZM264.007,485.922C264.088,478.072 257.629,471.607 249.69,471.579C241.541,471.554 235.141,477.869 235.162,485.909C235.183,493.84 241.55,500.123 249.556,500.123C257.555,500.13 263.938,493.86 264.007,485.922ZM487.981,262.879C480.354,262.824 473.738,269.44 473.799,277.06C473.865,284.59 480.151,290.772 487.763,290.787C495.743,290.802 501.728,284.926 501.747,277.04C501.769,269.236 495.641,262.933 487.981,262.879ZM152.997,-0.123C146.273,-0.15 141.083,4.986 141.083,11.677C141.083,18.326 146.327,23.496 153.045,23.462C159.565,23.428 164.674,18.23 164.674,11.628C164.675,4.965 159.646,-0.089 152.997,-0.123ZM514.591,199.506C509.11,199.444 504.143,204.35 504.074,209.907C504,215.654 508.783,220.437 514.618,220.451C520.413,220.472 524.958,215.966 524.999,210.145C525,210.094 525,210.043 525,209.992C525,204.268 520.314,199.548 514.591,199.506ZM99.538,406.504C99.564,400.94 94.767,396.15 89.116,396.097C83.388,396.048 78.679,400.867 78.72,406.729C78.767,412.456 83.415,416.98 89.204,416.94C94.884,416.905 99.519,412.23 99.538,406.504Z" style="fill:rgb(51,51,51);fill-rule:nonzero;"/>
                </g>
                <g transform="matrix(0.356191,0,0,0.356191,416.079,330.952)">
                    <path d="M285.814,314.146C285.828,333.509 298.258,350.623 315.885,356.438C324.719,359.355 333.831,360.739 343.08,361.146C349.683,361.431 356.275,360.97 362.376,357.929C367.173,355.534 369.433,351.578 369.216,346.307C368.999,341.001 366.623,337.033 361.548,334.921C359.784,334.188 357.993,333.591 356.12,333.266C350.522,332.267 344.897,331.426 339.327,330.322C330.134,328.491 326.279,323.625 326.157,314.329C326.05,306.106 328.281,298.35 330.811,290.677C335.439,276.632 341.679,263.246 347.659,249.75C353.432,236.717 359.484,223.791 363.562,210.064C365.808,202.526 366.88,194.968 364.838,187.172C361.73,175.339 354.639,167.408 342.412,165.127C331.218,163.044 320.076,162.807 309.953,169.483C306.587,171.695 303.35,171.166 300.428,168.587C298.196,166.626 296.072,164.55 293.887,162.535C283.561,153.002 269.909,152.534 258.823,161.24C254.35,164.754 250.586,169.111 245.727,172.164C241.385,174.891 237.007,175.664 232.199,173.1C227.619,170.657 222.877,168.507 218.147,166.363C213.356,164.199 208.715,161.526 203.322,161.071C186.264,159.619 168.413,169.756 160.888,185.165C157.549,191.984 154.823,199.068 152.238,206.198C140.302,239.16 130.58,272.827 120.518,306.378C116.012,321.394 121.33,336.17 134.045,344.28C143.965,350.602 154.827,352.165 166.072,348.786C175.182,346.044 180.171,338.711 183.658,330.473C195.246,303.144 205.682,275.351 216.728,247.805C219.768,240.225 222.711,232.613 225.936,225.115C229.192,217.544 238.548,214.965 244.098,219.986C247.486,223.051 248.379,227.131 248.047,231.493C247.682,236.155 245.876,240.455 244.18,244.737C236.993,262.907 229.673,281.024 222.454,299.18C220.995,302.852 219.414,306.494 218.769,310.435C217.664,317.202 220.343,323.2 225.878,325.587C231.525,328.024 237.387,328.431 243.241,326.306C250.053,323.837 254.124,318.504 257.26,312.342C268.035,291.182 278.727,269.97 289.495,248.809C294.469,239.033 299.53,229.303 304.611,219.585C306.499,215.983 308.711,212.57 312.238,210.331C315.422,208.316 318.853,208.166 322.117,209.999C325.302,211.783 325.515,215.041 325.381,218.257C325.308,219.986 324.824,221.676 324.159,223.284C322.763,226.628 321.459,230.022 319.911,233.3C310.955,252.141 301.863,270.909 292.987,289.791C289.246,297.76 285.352,305.767 285.814,314.146Z" style="fill:white;fill-rule:nonzero;"/>
                </g>
            </g>
        </g>
    </g>
</svg>
