<?xml version="1.0" encoding="UTF-8" standalone="no"?>
<!DOCTYPE svg PUBLIC "-//W3C//DTD SVG 1.1//EN" "http://www.w3.org/Graphics/SVG/1.1/DTD/svg11.dtd">
<svg width="100%" height="100%" viewBox="0 0 51 51" version="1.1" xmlns="http://www.w3.org/2000/svg" xmlns:xlink="http://www.w3.org/1999/xlink" xml:space="preserve" xmlns:serif="http://www.serif.com/" style="fill-rule:evenodd;clip-rule:evenodd;stroke-linejoin:round;stroke-miterlimit:2;">
    <g transform="matrix(1,0,0,1,-5468,-1757)">
        <g transform="matrix(0.480696,0,0,0.480696,5339.6,1580.57)">
            <g id="Slack" transform="matrix(0.14829,0,0,0.14829,261.085,361.684)">
                <path d="M197.063,492.344C197.028,532.658 163.846,565.812 123.531,565.812C83.193,565.812 50,532.619 50,492.281C50,451.943 83.193,418.75 123.531,418.75L197.063,418.75L197.063,492.344Z" style="fill:rgb(51,51,51);fill-rule:nonzero;"/>
                <path d="M234.125,492.344C234.125,452.006 267.318,418.813 307.656,418.813C347.994,418.813 381.188,452.006 381.188,492.344L381.188,676.469C381.188,716.807 347.994,750 307.656,750C267.318,750 234.125,716.807 234.125,676.469L234.125,492.344Z" style="fill:rgb(51,51,51);fill-rule:nonzero;"/>
                <path d="M307.656,197.063C267.342,197.028 234.188,163.846 234.188,123.531C234.188,83.193 267.381,50 307.719,50C348.057,50 381.25,83.193 381.25,123.531L381.25,197.063L307.656,197.063Z" style="fill:rgb(51,51,51);fill-rule:nonzero;"/>
                <path d="M307.656,234.125C347.994,234.125 381.188,267.318 381.188,307.656C381.188,347.994 347.994,381.188 307.656,381.188L123.531,381.188C83.193,381.188 50,347.994 50,307.656C50,267.318 83.193,234.125 123.531,234.125L307.656,234.125Z" style="fill:rgb(51,51,51);fill-rule:nonzero;"/>
                <path d="M602.938,307.656C602.972,267.342 636.154,234.188 676.469,234.188C716.807,234.188 750,267.381 750,307.719C750,348.057 716.807,381.25 676.469,381.25L602.938,381.25L602.938,307.656Z" style="fill:rgb(51,51,51);fill-rule:nonzero;"/>
                <path d="M565.875,307.656C565.875,347.994 532.682,381.188 492.344,381.188C452.006,381.188 418.813,347.994 418.813,307.656L418.813,123.531C418.813,83.193 452.006,50 492.344,50C532.682,50 565.875,83.193 565.875,123.531L565.875,307.656Z" style="fill:rgb(51,51,51);fill-rule:nonzero;"/>
                <path d="M492.344,602.938C532.658,602.972 565.812,636.154 565.812,676.469C565.812,716.807 532.619,750 492.281,750C451.943,750 418.75,716.807 418.75,676.469L418.75,602.938L492.344,602.938Z" style="fill:rgb(51,51,51);fill-rule:nonzero;"/>
                <path d="M492.344,565.875C452.006,565.875 418.813,532.682 418.813,492.344C418.813,452.006 452.006,418.813 492.344,418.813L676.469,418.813C716.807,418.813 750,452.006 750,492.344C750,532.682 716.807,565.875 676.469,565.875L492.344,565.875Z" style="fill:rgb(51,51,51);fill-rule:nonzero;"/>
            </g>
        </g>
    </g>
</svg>
